<?xml version="1.0" encoding="UTF-8"?>
<svg id="a" data-name="Ebene 1" xmlns="http://www.w3.org/2000/svg" viewBox="0 0 106.34 81.96">
  <rect y="8.02" width="106.34" height="63.62" fill="none"/>
  <g>
    <rect x="4.14" y="7.7" width="100.93" height="62.31" fill="none"/>
    <path d="M20.41,38.28v.08c4.9,2.05,7.19,5.69,7.19,16.9,0,7.58.55,9.95,1.74,9.95,1.26,0,1.58-2.37,1.5-5.53,0-.39.08-.63.47-.63h.24c.32,0,.47.16.47.71.08,5.69-1.5,7.43-3.95,7.43-4.66,0-5.69-5.77-5.69-11.61,0-9.95-.08-16.59-5.29-16.59h-3.32v19.99c0,5.77.08,6,1.19,6h1.58c.47,0,.71.08.71.55v.16c0,.39-.24.47-.71.47H5.88c-.47,0-.71-.08-.71-.47v-.16c0-.47.24-.55.71-.55h1.5c1.19,0,1.26-.24,1.26-6V20.03c0-5.77-.08-6-1.26-6h-1.5c-.47,0-.71-.08-.71-.55v-.16c0-.4.24-.47.71-.47h10.9c5.37,0,11.69,2.21,11.69,12.56,0,6.95-3.08,11.14-8.06,12.88ZM16.7,14.34h-2.92v23.15h3.4c4.03,0,5.77-3.24,5.77-11.77,0-9.48-2.29-11.38-6.24-11.38Z"/>
    <path d="M33.84,66.16c-.47,0-.71-.08-.71-.47v-.16c0-.47.24-.55.71-.55h1.5c1.19,0,1.26-.24,1.26-6V20.03c0-5.77-.08-6-1.26-6h-1.5c-.47,0-.71-.08-.71-.55v-.16c0-.4.24-.47.71-.47h10.74c.47,0,.71.08.71.47v.16c0,.47-.24.55-.71.55h-1.58c-1.11,0-1.19.24-1.19,6v38.94c0,5.77.08,6,1.19,6h1.58c.47,0,.71.08.71.55v.16c0,.39-.24.47-.71.47h-10.74Z"/>
    <path d="M66.31,66.16c-.39,0-.47-.24-.71-.87l-7.9-24.96c-1.18,2.45-1.74,4.9-1.74,8.21v10.43c0,5.77.08,6,1.18,6h1.58c.47,0,.71.08.71.55v.16c0,.39-.24.47-.71.47h-10.74c-.47,0-.71-.08-.71-.47v-.16c0-.47.24-.55.71-.55h1.5c1.11,0,1.19-.24,1.19-6V20.03c0-5.77-.08-6-1.19-6h-1.5c-.47,0-.71-.08-.71-.55v-.16c0-.4.24-.47.71-.47h10.74c.47,0,.71.08.71.47v.16c0,.47-.24.55-.71.55h-1.58c-1.11,0-1.18.24-1.18,6v20.93h.16c.87-3.24,3.32-7.9,6.63-14.85,1.58-3.4,3-6.4,3-8.93,0-2.29-.87-3.16-2.29-3.16h-.79c-.47,0-.71-.08-.71-.55v-.16c0-.4.24-.47.71-.47h10.11c.47,0,.71.08.71.47v.16c0,.47-.24.55-.71.55h-.32c-1.9,0-2.69,1.26-6.56,8.93l-4.98,10.27,7.74,23.54c2.45,7.74,2.69,8.22,3.48,8.22h.24c.47,0,.71.08.71.55v.16c0,.39-.24.47-.71.47h-6.08Z"/>
    <path d="M91.67,66.16c-.47,0-.71-.08-.71-.47v-.16c0-.47.24-.55.71-.55h1.11c1.03,0,1.5-.32,1.5-1.9,0-1.42-.32-3.63-1.11-7.42l-1.82-9.88h-9l-.16,1.19c-.79,3.55-1.5,8.14-1.5,11.93s.95,6.08,2.84,6.08h.95c.47,0,.71.08.71.55v.16c0,.39-.24.47-.71.47h-9.48c-.47,0-.71-.08-.71-.47v-.16c0-.47.24-.55.71-.55h.16c1.58,0,1.9-1.98,3.08-7.27.55-2.53,1.42-6.56,2.13-10.27l7.03-34.92c.08-.47.16-.71.47-.71h1.42c.4,0,.47.08.63.71l9.08,43.13c1.66,7.98,1.82,9.32,3.32,9.32h.16c.47,0,.71.08.71.55v.16c0,.39-.24.47-.71.47h-10.82ZM86.93,22.71h-.08l-4.19,21.57h8.37l-4.11-21.57Z"/>
  </g>
</svg>